<?xml version="1.0" standalone="no"?>
<!DOCTYPE svg PUBLIC "-//W3C//DTD SVG 20010904//EN"
 "http://www.w3.org/TR/2001/REC-SVG-20010904/DTD/svg10.dtd">
<svg version="1.0" xmlns="http://www.w3.org/2000/svg"
 width="150.000000pt" height="150.000000pt" viewBox="0 0 150.000000 150.000000"
 preserveAspectRatio="xMidYMid meet">

<g transform="translate(0.000000,150.000000) scale(0.100000,-0.100000)"
fill="#000000" stroke="none">
<path d="M706 1414 c-124 -45 -166 -149 -109 -268 16 -34 21 -37 46 -32 16 3
60 6 98 6 41 0 69 4 69 10 0 6 -29 41 -64 79 -35 37 -67 78 -71 90 -9 29 27
83 75 110 42 25 17 28 -44 5z"/>
<path d="M885 1334 c-41 -14 -85 -55 -85 -78 0 -7 11 -34 25 -60 14 -26 25
-53 25 -61 0 -8 12 -17 28 -20 15 -3 56 -12 91 -20 35 -8 66 -13 69 -10 14 14
-28 72 -82 113 -34 25 -64 51 -68 57 -14 19 -8 42 18 69 15 14 25 26 23 25 -2
0 -22 -7 -44 -15z"/>
<path d="M463 1317 c-59 -40 -78 -75 -80 -147 -2 -61 -4 -67 -39 -97 -21 -18
-41 -33 -45 -33 -4 0 -2 16 4 36 8 26 8 44 -1 67 -9 24 -9 36 2 59 8 15 12 28
10 28 -17 0 -81 -62 -123 -119 -118 -160 -165 -336 -142 -534 15 -125 53 -201
150 -297 83 -82 155 -125 273 -164 403 -131 868 45 970 368 16 50 19 81 15
176 -10 255 -87 393 -291 525 -82 53 -88 58 -84 86 4 28 3 28 -16 15 -38 -24
-41 -57 -12 -100 18 -27 26 -52 26 -81 0 -42 0 -42 68 -75 93 -46 201 -155
244 -246 30 -64 33 -77 33 -169 0 -88 -4 -109 -30 -170 -61 -146 -231 -274
-435 -326 -128 -33 -313 -31 -435 5 -120 36 -216 89 -293 160 -72 68 -106 121
-133 207 -72 233 86 480 371 580 36 12 67 24 69 25 2 2 -16 31 -39 66 -35 52
-41 69 -36 97 3 19 15 44 27 57 28 30 14 30 -28 1z"/>
<path d="M905 1056 c43 -26 100 -64 126 -86 l47 -39 51 21 c28 12 51 25 51 28
0 21 -188 94 -267 105 -26 4 -57 9 -68 12 -11 2 16 -16 60 -41z"/>
<path d="M542 1070 c-40 -11 -109 -38 -154 -62 l-82 -42 52 -24 52 -23 58 49
c31 28 84 66 117 86 68 41 61 43 -43 16z"/>
<path d="M809 1055 c17 -20 31 -40 31 -45 0 -20 -20 -9 -47 25 -35 44 -46 44
-37 0 5 -28 3 -35 -10 -35 -12 0 -16 10 -16 38 l-1 37 -33 -37 c-18 -21 -38
-38 -45 -38 -17 0 -14 9 14 42 14 17 24 33 21 35 -11 12 -163 -86 -209 -135
-32 -33 -29 -36 47 -47 36 -6 47 -12 52 -29 7 -30 -9 -99 -25 -104 -11 -4 -12
3 -7 29 14 74 16 71 -53 85 -36 8 -66 13 -67 11 -10 -12 -64 -103 -64 -108 0
-4 28 -10 63 -14 68 -8 96 -18 79 -29 -6 -4 -41 -1 -77 5 -40 8 -69 9 -75 3
-10 -11 -29 -121 -22 -129 3 -3 34 -5 69 -5 35 0 63 -4 63 -10 0 -6 -28 -10
-65 -10 -63 0 -65 -1 -65 -26 0 -14 5 -45 11 -70 13 -49 10 -49 114 -30 58 11
74 10 92 -1 26 -17 43 -61 33 -87 -8 -22 -12 -16 -29 37 -14 42 -28 45 -109
26 -76 -18 -74 -15 -52 -51 11 -19 28 -43 39 -55 19 -20 23 -21 67 -7 26 8 57
14 68 14 20 -1 20 -1 3 -14 -9 -7 -35 -16 -57 -20 -22 -3 -40 -10 -40 -16 0
-5 20 -25 45 -44 27 -20 41 -37 35 -41 -6 -4 -35 12 -64 34 l-54 42 -43 -17
c-24 -9 -48 -20 -53 -25 -9 -8 117 -71 182 -90 31 -9 45 -10 50 -2 4 6 18 73
30 148 22 126 23 138 8 160 -9 14 -23 25 -31 25 -8 0 -19 9 -25 20 -12 23 -2
27 14 5 10 -13 23 -12 111 1 101 16 131 28 107 43 -9 5 -5 11 13 19 52 24 25
32 -112 34 l-138 2 149 6 c107 3 151 9 154 18 2 7 -9 15 -27 18 -26 5 -29 9
-19 21 17 21 0 28 -100 42 -146 20 -157 19 -160 -6 -3 -19 1 -23 24 -23 15 0
24 -3 20 -7 -4 -5 -24 -8 -44 -8 -31 0 -38 -4 -40 -23 -3 -17 2 -25 17 -29 14
-4 18 -9 12 -17 -4 -6 -5 -20 -1 -31 6 -16 16 -19 61 -18 l54 2 -49 -9 c-56
-10 -86 0 -86 30 0 10 -8 32 -17 50 -17 30 -17 32 2 48 11 10 27 31 36 47 9
17 20 29 25 28 5 0 32 -4 59 -8 l50 -7 -30 31 c-28 30 -30 38 -33 127 l-4 94
94 0 c51 0 109 3 128 5 53 8 61 -3 67 -88 4 -58 1 -84 -11 -108 -9 -18 -15
-33 -14 -34 2 -2 17 -10 35 -19 38 -19 50 -54 60 -168 6 -77 6 -77 -26 -107
-17 -16 -31 -33 -31 -38 0 -4 16 -68 37 -141 22 -81 42 -132 49 -132 8 0 30 7
51 16 21 9 49 22 63 28 40 17 102 57 97 62 -2 3 -27 13 -54 23 l-49 18 -49
-43 c-61 -54 -81 -46 -26 10 l42 43 -56 12 c-30 7 -55 17 -55 22 0 13 29 11
82 -5 l45 -13 20 31 c32 48 44 76 39 85 -3 5 -40 12 -81 16 -41 4 -75 11 -75
17 0 7 30 8 89 3 100 -8 97 -10 107 78 l6 52 -86 -4 c-83 -3 -126 3 -113 15 3
4 48 9 99 11 51 3 94 6 96 8 4 3 -24 124 -29 129 -2 2 -43 -3 -91 -12 l-87
-15 5 -31 c2 -17 1 -24 -2 -16 -4 8 -16 25 -27 37 -11 13 -18 26 -14 29 3 3
-1 23 -9 44 -27 66 -18 81 56 103 l65 19 -50 44 c-28 24 -79 59 -115 77 -100
51 -107 52 -71 12z m-106 -392 c-18 -2 -48 -2 -65 0 -18 2 -4 4 32 4 36 0 50
-2 33 -4z m-16 -109 c-3 -3 -12 -4 -19 -1 -8 3 -5 6 6 6 11 1 17 -2 13 -5z
m270 -145 c-12 -29 -16 -31 -22 -16 -5 11 -1 25 10 37 25 27 29 19 12 -21z"/>
<path d="M801 954 c0 -11 3 -14 6 -6 3 7 2 16 -1 19 -3 4 -6 -2 -5 -13z"/>
<path d="M1148 937 c-46 -21 -59 -39 -38 -52 6 -4 19 -24 30 -46 24 -46 32
-47 124 -16 l68 23 -56 57 c-31 31 -62 57 -68 56 -7 0 -34 -11 -60 -22z"/>
<path d="M665 940 c3 -5 8 -10 11 -10 2 0 4 5 4 10 0 6 -5 10 -11 10 -5 0 -7
-4 -4 -10z"/>
<path d="M720 942 c0 -5 16 -8 35 -8 19 1 35 4 35 8 0 5 -16 8 -35 8 -19 0
-35 -4 -35 -8z"/>
<path d="M226 889 c-26 -29 -45 -57 -43 -62 3 -10 20 -16 119 -40 25 -7 30 -3
53 42 13 27 30 53 36 57 12 7 -80 54 -106 54 -7 0 -34 -23 -59 -51z"/>
<path d="M632 911 c-18 -11 -12 -96 8 -129 21 -34 40 -42 40 -17 0 8 8 15 18
16 37 2 87 -3 110 -12 40 -15 56 9 58 87 l2 65 -114 -2 c-62 -1 -118 -5 -122
-8z"/>
<path d="M990 883 c-30 -8 -56 -16 -57 -17 -3 -3 27 -98 33 -105 5 -5 148 21
158 30 11 10 -51 109 -68 108 -6 0 -36 -8 -66 -16z"/>
<path d="M1255 798 c-38 -12 -71 -22 -73 -23 -1 -1 5 -34 14 -73 l16 -72 95 0
96 0 -5 43 c-6 52 -46 147 -62 146 -6 0 -42 -10 -81 -21z"/>
<path d="M139 754 c-11 -24 -23 -67 -26 -94 l-6 -50 91 0 c102 0 94 -6 106 80
2 19 7 42 11 51 5 13 -9 20 -75 37 l-82 20 -19 -44z"/>
<path d="M695 760 c-12 -19 15 -37 65 -44 38 -5 50 -11 56 -28 3 -12 16 -29
27 -39 l21 -16 -30 -39 c-29 -38 -54 -86 -54 -104 0 -6 13 -10 29 -10 37 0 50
-19 26 -37 -19 -13 -120 -18 -149 -7 -28 11 -17 33 19 40 59 11 41 26 -22 18
-73 -8 -77 -11 -59 -38 13 -20 11 -39 -10 -170 -14 -82 -23 -150 -21 -152 12
-12 155 -20 229 -14 97 9 128 17 128 31 0 6 -14 63 -31 127 -43 165 -43 157
-14 176 43 28 49 60 29 159 -10 48 -25 94 -34 102 -15 14 -155 55 -186 55 -7
0 -16 -5 -19 -10z"/>
<path d="M1206 558 c-3 -29 -8 -64 -12 -78 -5 -24 -2 -26 53 -37 32 -7 70 -15
84 -19 25 -5 28 -2 48 50 12 31 21 75 21 96 l0 40 -94 0 -93 0 -7 -52z"/>
<path d="M146 583 l-38 -4 6 -42 c4 -23 18 -66 31 -95 22 -48 26 -51 47 -43
13 6 48 17 79 25 l56 16 -15 62 c-8 35 -16 69 -18 76 -3 12 -59 14 -148 5z"/>
<path d="M1142 373 c-18 -30 -31 -57 -30 -58 2 -1 28 -11 59 -22 66 -25 74
-22 130 50 l41 51 -64 18 c-94 27 -99 25 -136 -39z"/>
<path d="M263 397 c-40 -11 -73 -24 -73 -29 0 -6 25 -34 56 -63 l55 -54 50 24
c28 12 52 25 55 27 3 4 -60 108 -69 114 -1 1 -35 -8 -74 -19z"/>
</g>
</svg>
